<svg width="18" height="18" viewBox="0 0 18 18" fill="none" xmlns="http://www.w3.org/2000/svg">
<g clip-path="url(#clip0_2422_172)">
<path d="M16.5 12V3C16.5 2.175 15.825 1.5 15 1.5H6C5.175 1.5 4.5 2.175 4.5 3V12C4.5 12.825 5.175 13.5 6 13.5H15C15.825 13.5 16.5 12.825 16.5 12ZM8.25 9L9.7725 11.0325L12 8.25L15 12H6L8.25 9ZM1.5 4.5V15C1.5 15.825 2.175 16.5 3 16.5H13.5V15H3V4.5H1.5Z" fill="#B4B4AE"/>
</g>
<defs>
<clipPath id="clip0_2422_172">
<rect width="18" height="18" rx="9" fill="white"/>
</clipPath>
</defs>
</svg>
